<svg xmlns="http://www.w3.org/2000/svg" width="129.798" height="126.598" viewBox="0 0 129.798 126.598">
  <path id="iconmonstr-github-1" d="M64.9,0A64.906,64.906,0,0,0,44.386,126.483c3.24.6,4.289-1.412,4.289-3.121V111.28c-18.053,3.926-21.812-7.658-21.812-7.658-2.953-7.5-7.209-9.5-7.209-9.5-5.89-4.029.449-3.943.449-3.943,6.517.454,9.946,6.69,9.946,6.69,5.787,9.919,15.181,7.052,18.886,5.392.579-4.191,2.261-7.058,4.121-8.675-14.413-1.65-29.567-7.215-29.567-32.076a25.119,25.119,0,0,1,6.685-17.42c-.671-1.639-2.893-8.242.633-17.177,0,0,5.452-1.741,17.853,6.652a61.514,61.514,0,0,1,32.5,0c12.39-8.394,17.831-6.652,17.831-6.652,3.532,8.94,1.309,15.543.638,17.177a25.051,25.051,0,0,1,6.679,17.42c0,24.927-15.181,30.416-29.632,32.022,2.326,2.012,4.451,5.96,4.451,12.017v17.809c0,1.725,1.038,3.753,4.332,3.115A64.911,64.911,0,0,0,64.9,0Z" transform="translate(0)" fill="#fff"/>
</svg>
